<svg width="24" height="24" viewBox="0 0 24 24" fill="none" xmlns="http://www.w3.org/2000/svg">
<g clip-path="url(#clip0_24_32)">
<path d="M12 24C18.6274 24 24 18.6274 24 12C24 5.37258 18.6274 0 12 0C5.37258 0 0 5.37258 0 12C0 18.6274 5.37258 24 12 24Z" fill="url(#paint0_linear_24_32)"/>
<path d="M18.0591 13.7139C17.8505 12.103 16.8302 10.7636 15.4454 10.0875C16.3929 9.37634 17.0111 8.24796 17.0111 6.97383C17.0111 4.82513 15.2645 3.07854 13.1158 3.07854C10.9671 3.07854 9.24816 4.80252 9.22052 6.91854C9.22052 6.92356 9.22052 6.98388 9.22052 7.05424H9.20293V18.5793C9.20293 18.5793 9.20293 18.5969 9.20293 18.6044C9.20293 18.622 9.20293 18.6396 9.20293 18.6572C9.20293 19.2126 8.75309 19.6624 8.19769 19.6624C7.6423 19.6624 7.19246 19.2126 7.19246 18.6572C7.19246 18.3104 6.91099 18.0289 6.56419 18.0289C6.21738 18.0289 5.93591 18.3104 5.93591 18.6572C5.93591 19.9037 6.9512 20.919 8.19769 20.919C9.44419 20.919 10.3866 19.9715 10.4519 18.7828H10.4595V18.0088C11.2813 18.6597 12.3116 19.0341 13.3872 19.0341C14.7744 19.0341 16.0863 18.426 16.9835 17.368C17.2071 17.1041 17.1744 16.707 16.9106 16.4834C16.6467 16.2597 16.2496 16.2924 16.026 16.5562C15.3675 17.3328 14.405 17.7801 13.3897 17.7801C12.2061 17.7801 11.0928 17.1619 10.462 16.1592V7.4488C10.472 7.40356 10.4796 7.35582 10.4796 7.30807C10.4796 7.29299 10.4796 6.9688 10.4796 6.93864C10.4972 5.50367 11.6808 4.33508 13.1183 4.33508C14.5558 4.33508 15.7571 5.51875 15.7571 6.97383C15.7571 8.4289 14.5734 9.61257 13.1183 9.61257C13.0655 9.61257 13.0178 9.62011 12.9701 9.63267C12.96 9.63267 12.9525 9.63267 12.9424 9.63267C12.5956 9.66534 12.3443 9.97194 12.377 10.3162C12.4096 10.6605 12.7187 10.9169 13.0605 10.8817C13.1686 10.8716 13.2792 10.8666 13.3897 10.8666C15.1213 10.8666 16.5939 12.1583 16.8151 13.8723C16.8553 14.1889 17.1267 14.4201 17.4383 14.4201C17.466 14.4201 17.4911 14.4201 17.5187 14.4151C17.863 14.3698 18.1068 14.0557 18.0616 13.7114L18.0591 13.7139Z" fill="white"/>
</g>
<defs>
<linearGradient id="paint0_linear_24_32" x1="0" y1="12" x2="24" y2="12" gradientUnits="userSpaceOnUse">
<stop stop-color="#AC8DF3"/>
<stop offset="1" stop-color="#5F1CF7"/>
</linearGradient>
<clipPath id="clip0_24_32">
<rect width="24" height="24" fill="white"/>
</clipPath>
</defs>
</svg>
