<svg width="123" height="24" viewBox="0 0 123 24" fill="none" xmlns="http://www.w3.org/2000/svg">
<path d="M12 24C18.6274 24 24 18.6274 24 12C24 5.37258 18.6274 0 12 0C5.37258 0 0 5.37258 0 12C0 18.6274 5.37258 24 12 24Z" fill="url(#paint0_linear_21_34)"/>
<path d="M18.0591 13.7139C17.8505 12.103 16.8302 10.7636 15.4454 10.0875C16.3929 9.37634 17.0111 8.24796 17.0111 6.97383C17.0111 4.82513 15.2645 3.07854 13.1158 3.07854C10.9671 3.07854 9.24816 4.80252 9.22052 6.91854C9.22052 6.92356 9.22052 6.98388 9.22052 7.05424H9.20293V18.5793C9.20293 18.5793 9.20293 18.5969 9.20293 18.6044C9.20293 18.622 9.20293 18.6396 9.20293 18.6572C9.20293 19.2126 8.75309 19.6624 8.19769 19.6624C7.6423 19.6624 7.19246 19.2126 7.19246 18.6572C7.19246 18.3104 6.91099 18.0289 6.56419 18.0289C6.21738 18.0289 5.93591 18.3104 5.93591 18.6572C5.93591 19.9037 6.9512 20.919 8.19769 20.919C9.44419 20.919 10.3866 19.9715 10.4519 18.7828H10.4595V18.0088C11.2813 18.6597 12.3116 19.0341 13.3872 19.0341C14.7744 19.0341 16.0863 18.426 16.9835 17.368C17.2071 17.1041 17.1744 16.707 16.9106 16.4834C16.6467 16.2597 16.2496 16.2924 16.026 16.5562C15.3675 17.3328 14.405 17.7801 13.3897 17.7801C12.2061 17.7801 11.0928 17.1619 10.462 16.1592V7.4488C10.472 7.40356 10.4796 7.35582 10.4796 7.30807C10.4796 7.29299 10.4796 6.9688 10.4796 6.93864C10.4972 5.50367 11.6808 4.33508 13.1183 4.33508C14.5558 4.33508 15.7571 5.51875 15.7571 6.97383C15.7571 8.4289 14.5734 9.61257 13.1183 9.61257C13.0655 9.61257 13.0178 9.62011 12.9701 9.63267C12.96 9.63267 12.9525 9.63267 12.9424 9.63267C12.5956 9.66534 12.3443 9.97194 12.377 10.3162C12.4096 10.6605 12.7187 10.9169 13.0605 10.8817C13.1686 10.8716 13.2792 10.8666 13.3897 10.8666C15.1213 10.8666 16.5939 12.1583 16.8151 13.8723C16.8553 14.1889 17.1267 14.4201 17.4383 14.4201C17.466 14.4201 17.4911 14.4201 17.5187 14.4151C17.863 14.3698 18.1068 14.0557 18.0616 13.7114L18.0591 13.7139Z" fill="white"/>
<path d="M33.982 12.48C34.0724 12.671 34.08 12.867 34.0071 13.0681C33.9342 13.2641 33.7985 13.4073 33.605 13.4978C32.8209 13.8496 31.7906 14.3145 30.5139 14.8926C28.9282 15.6088 27.9003 16.0737 27.4304 16.2873C28.036 17.0614 28.8301 17.4459 29.8153 17.4459C30.4712 17.4459 31.0643 17.2523 31.5971 16.8653C32.1122 16.4909 32.4741 16.0033 32.6802 15.4027C32.8033 15.0559 33.0496 14.8825 33.419 14.8825C33.6829 14.8825 33.8915 14.9906 34.0498 15.2092C34.2006 15.4228 34.2308 15.654 34.1428 15.9053C33.8287 16.8126 33.2808 17.5464 32.4967 18.1068C31.6951 18.6848 30.8029 18.9713 29.8178 18.9713C28.5512 18.9713 27.4706 18.524 26.5759 17.6268C25.6787 16.7296 25.2314 15.649 25.2314 14.3849C25.2314 13.1208 25.6787 12.0377 26.5759 11.143C27.4731 10.2459 28.5537 9.79852 29.8178 9.79852C30.73 9.79852 31.5644 10.0473 32.3208 10.5474C33.0647 11.035 33.6201 11.6783 33.9845 12.48H33.982ZM29.8153 11.3692C28.9759 11.3692 28.2572 11.6657 27.6641 12.2588C27.076 12.8519 26.782 13.5682 26.782 14.41C26.782 14.5608 26.792 14.7091 26.8146 14.8549L32.1323 12.4523C31.5267 11.7311 30.7552 11.3692 29.8128 11.3692H29.8153Z" fill="#5F20F7"/>
<path d="M36.4951 6.35559C36.7011 6.35559 36.8821 6.42847 37.0329 6.57423C37.1837 6.72501 37.259 6.90847 37.259 7.11957V9.79852H38.7719C38.978 9.79852 39.1589 9.87392 39.3097 10.0247C39.4605 10.1755 39.5359 10.3589 39.5359 10.57V10.5876C39.5359 10.8012 39.4605 10.9797 39.3097 11.1254C39.1589 11.2762 38.978 11.3516 38.7719 11.3516H37.259V16.5864C37.259 16.8151 37.3395 17.0111 37.5028 17.1744C37.6662 17.3378 37.8647 17.4182 38.0984 17.4182H38.7694C38.9755 17.4182 39.1564 17.4936 39.3072 17.6444C39.458 17.7952 39.5334 17.9786 39.5334 18.1897V18.2073C39.5334 18.4209 39.458 18.5994 39.3072 18.7451C39.1564 18.8959 38.9755 18.9713 38.7694 18.9713H38.0984C37.4375 18.9713 36.872 18.7401 36.4021 18.2752C35.9372 17.8052 35.7034 17.2423 35.7034 16.5864V7.11957C35.7034 6.90596 35.7788 6.72501 35.9296 6.57423C36.0804 6.42847 36.2588 6.35559 36.4674 6.35559H36.4926H36.4951Z" fill="#5F20F7"/>
<path d="M41.5011 6.35559C41.7072 6.35559 41.8882 6.42847 42.0389 6.57423C42.1897 6.72501 42.2651 6.90847 42.2651 7.11957V9.79852H43.778C43.9841 9.79852 44.165 9.87392 44.3158 10.0247C44.4666 10.1755 44.542 10.3589 44.542 10.57V10.5876C44.542 10.8012 44.4666 10.9797 44.3158 11.1254C44.165 11.2762 43.9841 11.3516 43.778 11.3516H42.2651V16.5864C42.2651 16.8151 42.3455 17.0111 42.5089 17.1744C42.6722 17.3378 42.8708 17.4182 43.1045 17.4182H43.7755C43.9816 17.4182 44.1625 17.4936 44.3133 17.6444C44.4641 17.7952 44.5395 17.9786 44.5395 18.1897V18.2073C44.5395 18.4209 44.4641 18.5994 44.3133 18.7451C44.1625 18.8959 43.9816 18.9713 43.7755 18.9713H43.1045C42.4435 18.9713 41.8781 18.7401 41.4082 18.2752C40.9432 17.8052 40.7095 17.2423 40.7095 16.5864V7.11957C40.7095 6.90596 40.7849 6.72501 40.9357 6.57423C41.0865 6.42847 41.2649 6.35559 41.4735 6.35559H41.4986H41.5011Z" fill="#5F20F7"/>
<path d="M54.2199 12.48C54.3103 12.671 54.3179 12.867 54.245 13.0681C54.1721 13.2641 54.0364 13.4073 53.8429 13.4978C53.0588 13.8496 52.0285 14.3145 50.7518 14.8926C49.1661 15.6088 48.1382 16.0737 47.6683 16.2873C48.2739 17.0614 49.068 17.4459 50.0532 17.4459C50.7091 17.4459 51.3022 17.2523 51.835 16.8653C52.3501 16.4909 52.712 16.0033 52.9181 15.4027C53.0412 15.0559 53.2875 14.8825 53.6569 14.8825C53.9208 14.8825 54.1294 14.9906 54.2877 15.2092C54.4385 15.4228 54.4687 15.654 54.3807 15.9053C54.0666 16.8126 53.5187 17.5464 52.7346 18.1068C51.933 18.6848 51.0408 18.9713 50.0557 18.9713C48.7891 18.9713 47.7085 18.524 46.8138 17.6268C45.9166 16.7296 45.4693 15.649 45.4693 14.3849C45.4693 13.1208 45.9166 12.0377 46.8138 11.143C47.711 10.2459 48.7916 9.79852 50.0557 9.79852C50.9679 9.79852 51.8023 10.0473 52.5587 10.5474C53.3026 11.035 53.858 11.6783 54.2224 12.48H54.2199ZM50.0532 11.3692C49.2138 11.3692 48.4951 11.6657 47.902 12.2588C47.3139 12.8519 47.0199 13.5682 47.0199 14.41C47.0199 14.5608 47.0299 14.7091 47.0525 14.8549L52.3702 12.4523C51.7646 11.7311 50.9931 11.3692 50.0507 11.3692H50.0532Z" fill="#5F20F7"/>
<path d="M59.8743 9.79852C60.0879 9.79852 60.2689 9.87392 60.4197 10.0247C60.5654 10.1755 60.6383 10.3589 60.6383 10.57V10.5876C60.6383 10.8012 60.5654 10.9797 60.4197 11.1254C60.2739 11.2712 60.0854 11.3516 59.8743 11.3516H59.3943C58.8666 11.3516 58.4193 11.5376 58.0498 11.907C57.6854 12.2764 57.502 12.7238 57.4944 13.2515V18.2073C57.4944 18.4209 57.419 18.5994 57.2683 18.7451C57.1175 18.8959 56.9365 18.9713 56.7305 18.9713H56.7053C56.4992 18.9713 56.3183 18.8959 56.1675 18.7451C56.0167 18.5994 55.9413 18.4209 55.9413 18.2073V13.2515C55.9514 12.294 56.2882 11.4798 56.9491 10.8063C57.6201 10.1353 58.4368 9.79852 59.3943 9.79852H59.8743Z" fill="#5F20F7"/>
<path d="M73.8622 6.5491C74.2492 6.64963 74.4427 6.89591 74.4427 7.28795V7.31308C74.4427 7.55936 74.3422 7.76041 74.1411 7.91874C73.9451 8.06952 73.7265 8.11476 73.4852 8.05193C73.0932 7.95141 72.6961 7.90114 72.2915 7.90114C70.9822 7.90114 69.8614 8.36607 68.9315 9.29591C68.0017 10.2258 67.5367 11.3491 67.5367 12.666C67.5367 13.9828 68.0017 15.1062 68.9315 16.036C69.8614 16.9608 70.9822 17.4232 72.2915 17.4232C72.6936 17.4232 73.0932 17.3755 73.4852 17.28C73.7265 17.2172 73.9451 17.2624 74.1411 17.4157C74.3422 17.5665 74.4427 17.7675 74.4427 18.0214V18.0389C74.4427 18.436 74.2492 18.6848 73.8622 18.7878C73.347 18.916 72.8243 18.9814 72.2915 18.9814C70.5499 18.9814 69.0622 18.3656 67.8308 17.1342C66.5994 15.9028 65.9811 14.4151 65.9811 12.6735C65.9811 10.9319 66.5969 9.44418 67.8308 8.21277C69.0647 6.98135 70.5499 6.36565 72.2915 6.36565C72.8243 6.36565 73.347 6.43099 73.8622 6.55915V6.5491Z" fill="#5F20F7"/>
<path d="M80.1223 9.79852C81.3889 9.79852 82.4695 10.2459 83.3642 11.143C84.2614 12.0402 84.7087 13.1208 84.7087 14.3849C84.7087 15.649 84.2614 16.7321 83.3642 17.6268C82.467 18.524 81.3864 18.9713 80.1223 18.9713C78.8582 18.9713 77.7751 18.524 76.8804 17.6268C75.9832 16.7296 75.5359 15.649 75.5359 14.3849C75.5359 13.1208 75.9832 12.0377 76.8804 11.143C77.7776 10.2459 78.8582 9.79852 80.1223 9.79852ZM80.1223 11.3692C79.2829 11.3692 78.5642 11.6657 77.9711 12.2588C77.383 12.8519 77.089 13.5682 77.089 14.41C77.089 15.2519 77.383 15.9581 77.9711 16.5512C78.5642 17.1443 79.2804 17.4408 80.1223 17.4408C80.9642 17.4408 81.6754 17.1443 82.2634 16.5512C82.8565 15.9581 83.1531 15.2444 83.1531 14.41C83.1531 13.5757 82.8565 12.8519 82.2634 12.2588C81.6754 11.6657 80.9617 11.3692 80.1223 11.3692Z" fill="#5F20F7"/>
<path d="M87.6917 18.2098C87.6917 18.4234 87.6163 18.6019 87.4656 18.7476C87.3148 18.8984 87.1338 18.9738 86.9277 18.9738H86.9026C86.6965 18.9738 86.5156 18.8984 86.3648 18.7476C86.214 18.6019 86.1386 18.4234 86.1386 18.2098V13.6134C86.1386 12.5604 86.5106 11.6607 87.257 10.9168C88.0008 10.173 88.9005 9.79852 89.9535 9.79852C91.0065 9.79852 91.8961 10.1705 92.6425 10.9168C93.3864 11.6607 93.7608 12.5604 93.7608 13.6134V18.2098C93.7608 18.4234 93.6854 18.6019 93.5347 18.7476C93.3889 18.8984 93.2105 18.9738 92.9969 18.9738H92.9793C92.7657 18.9738 92.5847 18.8984 92.4339 18.7476C92.2831 18.6019 92.2078 18.4234 92.2078 18.2098V13.6134C92.2078 12.9927 91.9891 12.4599 91.5518 12.0176C91.1095 11.5753 90.5768 11.3541 89.956 11.3541C89.3353 11.3541 88.795 11.5753 88.3502 12.0176C87.9129 12.4599 87.6942 12.9927 87.6942 13.6134V18.2098H87.6917Z" fill="#5F20F7"/>
<path d="M96.2262 6.35559C96.4322 6.35559 96.6132 6.42847 96.764 6.57423C96.9148 6.72501 96.9901 6.90847 96.9901 7.11957V9.79852H98.503C98.7091 9.79852 98.89 9.87392 99.0408 10.0247C99.1916 10.1755 99.267 10.3589 99.267 10.57V10.5876C99.267 10.8012 99.1916 10.9797 99.0408 11.1254C98.89 11.2762 98.7091 11.3516 98.503 11.3516H96.9901V16.5864C96.9901 16.8151 97.0706 17.0111 97.2339 17.1744C97.3973 17.3378 97.5958 17.4182 97.8295 17.4182H98.5005C98.7066 17.4182 98.8875 17.4936 99.0383 17.6444C99.1891 17.7952 99.2645 17.9786 99.2645 18.1897V18.2073C99.2645 18.4209 99.1891 18.5994 99.0383 18.7451C98.8875 18.8959 98.7066 18.9713 98.5005 18.9713H97.8295C97.1686 18.9713 96.6031 18.7401 96.1332 18.2752C95.6683 17.8052 95.4345 17.2423 95.4345 16.5864V7.11957C95.4345 6.90596 95.5099 6.72501 95.6607 6.57423C95.8115 6.42847 95.9899 6.35559 96.1985 6.35559H96.2237H96.2262Z" fill="#5F20F7"/>
<path d="M108.274 11.143C109.171 12.0402 109.618 13.1208 109.618 14.3849V18.2073C109.618 18.4209 109.543 18.5994 109.392 18.7451C109.241 18.8959 109.061 18.9713 108.854 18.9713H108.829C108.621 18.9713 108.442 18.8959 108.292 18.7451C108.141 18.5994 108.065 18.4209 108.065 18.2073V17.8203C107.196 18.5868 106.186 18.9713 105.032 18.9713C103.765 18.9713 102.685 18.524 101.79 17.6268C100.895 16.7296 100.446 15.649 100.446 14.3849C100.446 13.1208 100.893 12.0377 101.79 11.143C102.687 10.2459 103.768 9.79852 105.032 9.79852C106.296 9.79852 107.379 10.2459 108.274 11.143ZM102.881 12.2438C102.293 12.8368 101.999 13.5506 101.999 14.3849C101.999 15.2193 102.293 15.943 102.881 16.5361C103.474 17.1242 104.19 17.4182 105.032 17.4182C105.874 17.4182 106.585 17.1242 107.173 16.5361C107.766 15.943 108.063 15.2268 108.063 14.3849C108.063 13.543 107.766 12.8368 107.173 12.2438C106.585 11.6507 105.871 11.3541 105.032 11.3541C104.193 11.3541 103.474 11.6507 102.881 12.2438Z" fill="#5F20F7"/>
<path d="M117.019 10.0172C117.379 10.1303 117.557 10.374 117.557 10.7485V10.7912C117.557 11.0475 117.454 11.2536 117.246 11.4044C117.032 11.5602 116.803 11.6004 116.557 11.5225C116.261 11.422 115.951 11.3717 115.632 11.3717C114.793 11.3717 114.074 11.6683 113.481 12.2614C112.893 12.8544 112.599 13.5707 112.599 14.4126C112.599 15.2544 112.893 15.9606 113.481 16.5537C114.074 17.1468 114.79 17.4433 115.632 17.4433C115.951 17.4433 116.261 17.3956 116.557 17.3001C116.803 17.2222 117.032 17.2574 117.246 17.4082C117.452 17.5589 117.557 17.7675 117.557 18.0289C117.557 18.3983 117.379 18.6421 117.019 18.7602C116.572 18.9009 116.11 18.9713 115.632 18.9713C114.366 18.9713 113.285 18.524 112.39 17.6268C111.493 16.7296 111.046 15.649 111.046 14.3849C111.046 13.1208 111.493 12.0377 112.39 11.143C113.288 10.2459 114.368 9.79852 115.632 9.79852C116.107 9.79852 116.57 9.8714 117.019 10.0172Z" fill="#5F20F7"/>
<path d="M119.776 6.35559C119.982 6.35559 120.163 6.42847 120.314 6.57423C120.465 6.72501 120.54 6.90847 120.54 7.11957V9.79852H122.053C122.259 9.79852 122.44 9.87392 122.591 10.0247C122.742 10.1755 122.817 10.3589 122.817 10.57V10.5876C122.817 10.8012 122.742 10.9797 122.591 11.1254C122.44 11.2762 122.259 11.3516 122.053 11.3516H120.54V16.5864C120.54 16.8151 120.621 17.0111 120.784 17.1744C120.947 17.3378 121.146 17.4182 121.38 17.4182H122.051C122.257 17.4182 122.438 17.4936 122.588 17.6444C122.739 17.7952 122.815 17.9786 122.815 18.1897V18.2073C122.815 18.4209 122.739 18.5994 122.588 18.7451C122.438 18.8959 122.257 18.9713 122.051 18.9713H121.38C120.719 18.9713 120.153 18.7401 119.683 18.2752C119.218 17.8052 118.985 17.2423 118.985 16.5864V7.11957C118.985 6.90596 119.06 6.72501 119.211 6.57423C119.362 6.42847 119.54 6.35559 119.749 6.35559H119.774H119.776Z" fill="#5F20F7"/>
<defs>
<linearGradient id="paint0_linear_21_34" x1="0" y1="12" x2="24" y2="12" gradientUnits="userSpaceOnUse">
<stop stop-color="#AC8DF3"/>
<stop offset="1" stop-color="#5F1CF7"/>
</linearGradient>
</defs>
</svg>
